<?xml version="1.0" encoding="UTF-8"?>
<svg version="1.1" xmlns="http://www.w3.org/2000/svg" width="232" height="217">
<path d="M0 0 C76.56 0 153.12 0 232 0 C232 71.61 232 143.22 232 217 C155.44 217 78.88 217 0 217 C0 145.39 0 73.78 0 0 Z " fill="#C18E5F" transform="translate(0,0)"/>
<path d="M0 0 C48.51 0 97.02 0 147 0 C147 71.61 147 143.22 147 217 C125.22 217 103.44 217 81 217 C80.68881594 196.7640061 80.41103 176.52845688 80.1943512 156.29125023 C80.09266994 146.89473951 79.97593537 137.49886668 79.82373047 128.10302734 C79.69110396 119.91343188 79.58675372 111.72404721 79.516325 103.53367198 C79.47804552 99.19680294 79.42563481 94.86114607 79.33935547 90.52494431 C79.25856599 86.44219294 79.21563715 82.36078074 79.20153999 78.27727127 C79.1897325 76.77993514 79.16417262 75.2826336 79.12373161 73.78579712 C78.82956213 62.47351966 78.82956213 62.47351966 81.74046326 58.80884838 C83.76807848 57.26183863 85.70986278 56.10920996 88 55 C88.90105469 54.39937744 89.80210937 53.79875488 90.73046875 53.17993164 C91.54128906 52.67840576 92.35210937 52.17687988 93.1875 51.66015625 C94.12223145 51.07919189 95.05696289 50.49822754 96.02001953 49.8996582 C97.00341309 49.293396 97.98680664 48.68713379 99 48.0625 C101.12244177 46.74486565 103.24483614 45.42715497 105.3671875 44.109375 C106.45483398 43.43583984 107.54248047 42.76230469 108.66308594 42.06835938 C114.15820618 38.66225324 119.64163587 35.23748709 125.125 31.8125 C126.1253125 31.18931885 127.125625 30.5661377 128.15625 29.92407227 C132.81789939 27.01493165 137.45266917 24.08514196 142 21 C136.53352922 18.85180496 131.16435465 18.30546482 125.375 17.6875 C114.8087326 16.48914985 104.2792898 15.10666398 93.75 13.625 C90.64847466 13.18983911 87.54689159 12.75509016 84.4453125 12.3203125 C83.66555054 12.21090836 82.88578857 12.10150421 82.08239746 11.98878479 C73.60004358 10.80040426 65.113187 9.64588432 56.625 8.5 C55.50014694 8.34807693 55.50014694 8.34807693 54.35256958 8.19308472 C36.24117229 5.74918812 18.12102231 3.37130268 0 1 C0 0.67 0 0.34 0 0 Z " fill="#D2A06D" transform="translate(85,0)"/>
<path d="M0 0 C4.3310463 0.747793 8.67615645 1.32022313 13.03417969 1.88525391 C17.15009755 2.41910068 21.25861197 3.00093491 25.36816406 3.58154297 C25.36816406 4.24154297 25.36816406 4.90154297 25.36816406 5.58154297 C24.12292969 6.26023437 24.12292969 6.26023437 22.85253906 6.95263672 C13.67358769 12.01246638 4.69003155 17.37438026 -4.25683594 22.83154297 C-13.2357737 28.30465868 -22.21935319 33.7677909 -31.25683594 39.14404297 C-32.18061035 39.69801758 -33.10438477 40.25199219 -34.05615234 40.82275391 C-35.31951416 41.57153809 -35.31951416 41.57153809 -36.60839844 42.33544922 C-37.3413916 42.77187744 -38.07438477 43.20830566 -38.82958984 43.65795898 C-40.63183594 44.58154297 -40.63183594 44.58154297 -42.63183594 44.58154297 C-42.63183594 67.68154297 -42.63183594 90.78154297 -42.63183594 114.58154297 C-46.41878225 113.06676444 -48.69752308 111.99659647 -51.84667969 109.69091797 C-52.61560547 109.14693359 -53.38453125 108.60294922 -54.17675781 108.04248047 C-55.77666467 106.89838381 -57.36784847 105.74199311 -58.95019531 104.57373047 C-63.37032612 101.31726545 -63.37032612 101.31726545 -68.61621094 100.90185547 C-69.61136719 101.45615234 -70.60652344 102.01044922 -71.63183594 102.58154297 C-72.68673218 103.13841797 -72.68673218 103.13841797 -73.76293945 103.70654297 C-76.18274718 104.99777543 -78.5641825 106.34372857 -80.94433594 107.70654297 C-82.56441955 108.62759285 -84.18546076 109.54696115 -85.80761719 110.46435547 C-86.87363159 111.0736792 -86.87363159 111.0736792 -87.96118164 111.6953125 C-89.63183594 112.58154297 -89.63183594 112.58154297 -90.63183594 112.58154297 C-90.77017785 97.37930432 -90.52624945 82.22057776 -89.78515625 67.03466797 C-89.62953767 63.52978079 -89.53275109 60.02600629 -89.43652344 56.51904297 C-89.33772585 54.26891987 -89.23626512 52.01891174 -89.13183594 49.76904297 C-89.11588379 48.73158936 -89.09993164 47.69413574 -89.08349609 46.62524414 C-88.67957834 39.66084563 -88.67957834 39.66084563 -85.87304688 36.76977539 C-83.53088851 35.18221544 -81.14560393 33.8785454 -78.63183594 32.58154297 C-77.04602523 31.60300486 -75.46788008 30.61194012 -73.89746094 29.60888672 C-72.2265323 28.57740419 -70.55461924 27.54751502 -68.88183594 26.51904297 C-67.98005615 25.96249023 -67.07827637 25.4059375 -66.14916992 24.83251953 C-63.31090122 23.08082359 -60.47145012 21.33105677 -57.63183594 19.58154297 C-54.87872287 17.88439208 -52.12605152 16.18659564 -49.3762207 14.48413086 C-47.5918028 13.38456557 -45.80190312 12.29384592 -44.0065918 11.2121582 C-40.17203033 8.88458262 -36.51602725 6.59496286 -33.11621094 3.65966797 C-22.77647992 -4.9870169 -12.49464745 -2.21923081 0 0 Z " fill="#65472F" transform="translate(134.6318359375,6.41845703125)"/>
<path d="M0 0 C1.41318667 0.18758161 2.82713272 0.36951099 4.24169922 0.54638672 C8.81449262 1.12659197 13.3754781 1.77866373 17.9375 2.4375 C20.24819663 2.76662649 22.55908302 3.09438893 24.87002563 3.42178345 C26.38145241 3.63655249 27.89266701 3.85282048 29.40365601 4.07064819 C33.04178106 4.59310373 36.6800155 5.09165616 40.32861328 5.53564453 C41.01226456 5.62040543 41.69591583 5.70516632 42.40028381 5.79249573 C44.25387334 6.01982207 46.10847532 6.23884979 47.96313477 6.45727539 C50.71537278 6.94913367 52.61426697 7.58662668 55 9 C52.56169534 10.52394041 50.12338625 12.04787372 47.68505859 13.57177734 C45.53687367 14.91443408 43.38876335 16.25721019 41.24072266 17.60009766 C35.6804208 21.07599379 30.11905067 24.55013799 24.5546875 28.01953125 C23.52553223 28.66196777 22.49637695 29.3044043 21.43603516 29.96630859 C19.40353867 31.23366044 17.36936897 32.49833303 15.33349609 33.76025391 C11.07406391 36.40835286 6.84522641 39.06678914 2.734375 41.94140625 C2.11127441 42.37018066 1.48817383 42.79895508 0.84619141 43.24072266 C-0.71734354 44.32787845 -2.26217309 45.44181332 -3.8046875 46.55859375 C-11.8964035 50.20876882 -22.25369192 47.48808446 -30.7421875 46.3203125 C-32.02811798 46.14748749 -33.31404846 45.97466248 -34.63894653 45.79660034 C-37.3406378 45.4327088 -40.04162065 45.0640359 -42.7421875 44.69189453 C-46.19743611 44.21619043 -49.65423675 43.75305743 -53.11166191 43.2934742 C-56.42694808 42.85096835 -59.74072812 42.39764857 -63.0546875 41.9453125 C-64.29322479 41.78064484 -65.53176208 41.61597717 -66.80783081 41.44631958 C-67.95647614 41.28630463 -69.10512146 41.12628967 -70.28857422 40.96142578 C-71.29765839 40.82374786 -72.30674255 40.68606995 -73.34640503 40.54421997 C-75.88278322 40.02403973 -77.76370385 39.27928983 -80 38 C-79.50113281 37.70569092 -79.00226563 37.41138184 -78.48828125 37.1081543 C-68.93046407 31.46805549 -59.37700329 25.82073471 -49.8359375 20.15234375 C-49.13688293 19.73705917 -48.43782837 19.3217746 -47.71759033 18.89390564 C-41.52972801 15.21762901 -41.52972801 15.21762901 -35.34454346 11.53684998 C-34.05522877 10.77228859 -32.76321343 10.01226178 -31.46844482 9.25697327 C-28.52129188 7.53362313 -25.67878378 5.7786199 -22.86425781 3.83886719 C-14.84218053 -1.52246152 -9.36544463 -1.52315805 0 0 Z " fill="#AA7950" transform="translate(174,12)"/>
<path d="M0 0 C1.10923828 0.14888672 2.21847656 0.29777344 3.36132812 0.45117188 C12.08233288 1.69100014 12.08233288 1.69100014 16.0625 3.9375 C3.6893333 11.78875494 -8.73588814 19.55111102 -21.20556641 27.24804688 C-24.07097446 29.02004184 -26.93237553 30.79836881 -29.79296875 32.578125 C-30.7483252 33.17181885 -31.70368164 33.7655127 -32.68798828 34.37719727 C-34.52180776 35.51700571 -36.35485355 36.65806014 -38.18701172 37.80053711 C-39.01346191 38.31366455 -39.83991211 38.82679199 -40.69140625 39.35546875 C-41.41658447 39.80688232 -42.1417627 40.2582959 -42.88891602 40.72338867 C-43.90296509 41.32437378 -43.90296509 41.32437378 -44.9375 41.9375 C-45.50919922 42.33783447 -46.08089844 42.73816895 -46.66992188 43.15063477 C-50.28361419 44.4046109 -53.76071981 43.63790201 -57.46484375 43.109375 C-58.2907753 43.00030823 -59.11670685 42.89124146 -59.96766663 42.77886963 C-61.71255901 42.5458122 -63.45665362 42.30671327 -65.19995117 42.06201172 C-67.86007139 41.68959003 -70.52228007 41.33740876 -73.18554688 40.98828125 C-74.88297437 40.7590077 -76.58024603 40.52857692 -78.27734375 40.296875 C-79.07019272 40.19155457 -79.86304169 40.08623413 -80.67991638 39.97772217 C-84.70487564 39.40476149 -88.21626928 38.6758987 -91.9375 36.9375 C-91.9375 36.2775 -91.9375 35.6175 -91.9375 34.9375 C-73.42512854 26.15119081 -54.83029319 17.58512404 -36.08496094 9.30664062 C-35.36270828 8.98725021 -34.64045563 8.6678598 -33.89631653 8.33879089 C-32.48924514 7.71893437 -31.08049034 7.10288321 -29.66996765 6.49092102 C-26.68545968 5.19051454 -23.78867018 3.85850581 -20.91040039 2.33081055 C-13.57494156 -1.51850273 -8.08118953 -1.31397543 0 0 Z " fill="#AA7950" transform="translate(95.9375,1.0625)"/>
<path d="M0 0 C9.00077435 0 9.00077435 0 12.98120117 0.50317383 C13.87381149 0.61361526 14.76642181 0.7240567 15.68608093 0.83784485 C16.62885391 0.95967636 17.57162689 1.08150787 18.54296875 1.20703125 C19.54725418 1.3330925 20.55153961 1.45915375 21.58625793 1.58903503 C23.71038604 1.85660248 25.83421787 2.12653134 27.95776367 2.39868164 C31.13202749 2.80539244 34.30710142 3.2051478 37.48242188 3.60351562 C49.13334716 5.07364564 60.76384027 6.65496653 72.38598633 8.33666992 C78.33366524 9.19609212 84.28926499 9.98672701 90.25 10.75 C91.46437744 10.90629883 92.67875488 11.06259766 93.92993164 11.22363281 C117.60639139 14.25523956 141.30641207 17.10599681 165 20 C165 20.33 165 20.66 165 21 C110.55 21 56.1 21 0 21 C0 14.07 0 7.14 0 0 Z " fill="#FEFDFC" transform="translate(0,196)"/>
<path d="M0 0 C48.51 0 97.02 0 147 0 C147 42.24 147 84.48 147 128 C146.67 128 146.34 128 146 128 C145.82621348 118.43762033 145.65996725 108.87511986 145.5 99.3125 C145.48812275 98.60275402 145.4762455 97.89300804 145.46400833 97.16175461 C145.03615743 71.43962125 144.86961512 45.72594071 145 20 C144.409272 19.93451965 143.81854401 19.86903931 143.20991516 19.80157471 C122.78358494 17.53512379 102.43299591 14.84423122 82.08244324 11.98876953 C73.60006428 10.80046316 65.11320155 9.64588628 56.625 8.5 C55.50014694 8.34807693 55.50014694 8.34807693 54.35256958 8.19308472 C36.24117229 5.74918812 18.12102231 3.37130268 0 1 C0 0.67 0 0.34 0 0 Z " fill="#FCFBFA" transform="translate(85,0)"/>
<path d="M0 0 C27.39 0 54.78 0 83 0 C80.68421937 2.31578063 78.68918328 3.15640891 75.69140625 4.4765625 C74.56895508 4.97462402 73.44650391 5.47268555 72.29003906 5.98583984 C71.68454224 6.25209167 71.07904541 6.51834351 70.4552002 6.79266357 C67.18081777 8.23261046 63.91288413 9.68705641 60.64453125 11.140625 C59.95076385 11.44878143 59.25699646 11.75693787 58.54220581 12.07443237 C53.30715042 14.40460732 48.092905 16.77796162 42.88671875 19.171875 C41.7439724 19.69695145 41.7439724 19.69695145 40.57814026 20.2326355 C37.58039084 21.61083569 34.58297792 22.9897164 31.58840942 24.37481689 C30.88964691 24.69794861 30.1908844 25.02108032 29.47094727 25.35400391 C28.86509293 25.63466705 28.25923859 25.9153302 27.63502502 26.20449829 C18.48338068 30.38838357 9.33462297 34.15633172 0 38 C0 25.46 0 12.92 0 0 Z " fill="#FEFEFD" transform="translate(0,0)"/>
<path d="M0 0 C0 13.2 0 26.4 0 40 C-21.78 40 -43.56 40 -66 40 C-62.02549303 36.82039442 -58.19050724 34.24960727 -53.8125 31.75 C-46.11261934 27.28660054 -38.51360519 22.6701195 -30.9375 18 C-29.26651245 16.97084473 -29.26651245 16.97084473 -27.56176758 15.92089844 C-22.64302729 12.88584626 -17.73208646 9.84001109 -12.84765625 6.75 C-12.1007251 6.27820313 -11.35379395 5.80640625 -10.58422852 5.3203125 C-9.23435317 4.46519643 -7.88700686 3.60606952 -6.54272461 2.7421875 C-2.21910511 0 -2.21910511 0 0 0 Z " fill="#FEFEFE" transform="translate(232,177)"/>
</svg>
